<svg xmlns="http://www.w3.org/2000/svg" viewBox="0 0 292 126" role="img" aria-label="Sodhi Online Services courier aggregator">
  <defs>
    <linearGradient id="navy" x1="0" y1="0" x2="1" y2="1">
      <stop stop-color="#071d32"/>
      <stop offset="1" stop-color="#123d63"/>
    </linearGradient>
  </defs>
  <text x="18" y="62" font-family="Arial,Helvetica,sans-serif" font-size="72" font-weight="900" letter-spacing="-6" fill="url(#navy)">S</text>
  <g transform="translate(73 8) scale(.66)">
    <path d="M40 3C19 3 3 19 3 40c0 25 37 52 37 52s37-27 37-52C77 19 61 3 40 3Z" fill="#ff6a1f"/>
    <path d="m40 19 18 10v21L40 61 22 50V29l18-10Z" fill="#fff"/>
    <path d="m22 29 18 10 18-10M40 39v22" fill="none" stroke="#ff6a1f" stroke-width="2.5" stroke-linejoin="round"/>
  </g>
  <text x="122" y="62" font-family="Arial,Helvetica,sans-serif" font-size="72" font-weight="900" letter-spacing="-6" fill="url(#navy)">dhi</text>
  <text x="146" y="84" text-anchor="middle" font-family="Arial,Helvetica,sans-serif" font-size="21" font-weight="500" letter-spacing=".6" fill="#071d32">Online Services</text>
  <path d="M57 96h38m102 0h38" stroke="#ff6a1f" stroke-width="2"/>
  <text x="146" y="99" text-anchor="middle" font-family="Arial,Helvetica,sans-serif" font-size="8.5" font-weight="700" letter-spacing="4" fill="#607080">COURIER AGGREGATOR</text>
  <text x="146" y="120" text-anchor="middle" font-family="Arial,Helvetica,sans-serif" font-size="8.5" font-weight="700" letter-spacing="4.2" fill="#93a0ad">SHIP  |  TRACK  |  COMPARE  |  SAVE</text>
</svg>
